/* XPM */
static char *result[] = {
/* columns rows colors chars-per-pixel */
"64 64 66 1 ",
"  c #9D2D95",
". c #A02E97",
"X c #A72F9E",
"o c #A82F9F",
"O c #A3319A",
"+ c #A9309F",
"@ c #A73C9B",
"# c #A83D9C",
"$ c #AA2FA0",
"% c #AC32A2",
"& c #AF3CA2",
"* c #B132A7",
"= c #B13EA3",
"- c #B334A9",
"; c #B73BAC",
": c #B93EAB",
"> c #AF479E",
", c #B04AA0",
"< c #B849A6",
"1 c #BA41AC",
"2 c #B94CA8",
"3 c #BF47B6",
"4 c #C14DAF",
"5 c #C14AB5",
"6 c #C74EBD",
"7 c #C84FBE",
"8 c #C753BE",
"9 c #C952BF",
"0 c #CC59BE",
"q c #D062BF",
"w c #CA53C1",
"e c #CC59C3",
"r c #D05FC4",
"t c #D35ECD",
"y c #CF61C2",
"u c #D063C4",
"i c #D46AC3",
"p c #D461CF",
"a c #D769CD",
"s c #D86ACF",
"d c #D561D0",
"f c #DA65D7",
"g c #DE6ED6",
"h c #DD67DA",
"j c #DD68DA",
"k c #DF70D8",
"l c #E175D4",
"z c #E278D7",
"x c #E071D8",
"c c #E08CB7",
"v c #E38CB9",
"b c #E797BA",
"n c #E995BD",
"m c #EB9ABD",
"M c #F1A5BF",
"N c #EA95C1",
"B c #E499C2",
"V c #EE9EC1",
"C c #EBA6C6",
"Z c #EDA8C7",
"A c #ECA1CA",
"S c #EFAACA",
"D c #F1A7C0",
"F c #F2A8C1",
"G c #F1ABCB",
"H c #F4B5CB",
/* pixels */
"676wfjjfeeeehhhhewwwhjjxGHHHFMMMMMMDHHHZyeeeeee0666wfhhfww6wdhjj",
"667wfjjheeerhhhfwwwwhjjkGHHHMMMMMMMDHHHGyeeeweew866whhhfw66wdhjj",
"7667fjjfeeeefjhfwwwwfjhkGHHHMMMMMMMFGHHSyeewe0ee666wfhhfw66whjjj",
"677wfjjfrwwefjjfwwwejkkzGHHGmmnmbmmmHHHGiyyyeee8666wfhhfw66whjjj",
"6777fhjfw66wfjjfeeerSGGGDDDm4:::1::4mMMMZSSAyeeew66wffhfw66wfhhh",
"667wfjjfw67wfjjfeeeuGHHHDDMm:-----*:nMMMHHHGueww666wfhhfw66wfhhh",
"6667fhjfw669fjjheeeuSHHHDMMm1------1mMMFHHHSyeew666wfhjfw66wjhhh",
"7677fhjfw68wfjjfueriGHHGNmmv:****-*1vmmmHHHSiqurw66wfhjfw6wwhhhh",
"677wfjhfeweehhhgNVmVHHHZ2::;%$$$o+%%;::4ZHHHVmVn067wfjhfw66wfhhh",
"6669fhhgeeeehhjgVMDDHHHZ3--*$$$$o+oo---1ZHHHDMMm0677fjjfw66wfhhh",
"6777fhjfeeeehjjgVDMDHHHZ:---$%$$ooo+---1DHHHDMMm9667fjjfwwwwhhhh",
"667wfjjfeeeegkklVMMDCCDB:***%%$$&&**%*-:BACCDDDVq00effffw33whhhh",
"7677fjjfeeeeNVVVMMMm<===. .O:ww36988%+%%3::5ZHHHFGGVuere666wfhhh",
"6677fjjfeeeymDDDMMMb=$$O   O5ww6ewe8%O$$---1ZHHHHHHGuewe666wfhhh",
"7679fjjfeewumMMMMMMn=o++   O5w670ew8%oo%*-*:ZHHHHHHSrewww66whhhh",
"666wffffuuriVMMMbbmv&o++OOOO5777wee8;&%%--*:BZZZHHHGirre666whhhh",
"6777eeeuFGGSDMMm<===+++%3363wwwe6w688w66----=&=<ZHHHCmMn9667tddd",
"6677weeuGHHHDMMb=ooo+++*36w6wwew6666eeww;--*$$$=ZHHGFMMm0677ttdt",
"6767wewyGHHHDMMn&oo++o+%6ww3weeew668weww;*--$%$;ZHHHMMMm0666tdtd",
"7777yyyiFHHFmnmv=o++%&+*3w3wwtew6668wew6;---%$$;BCCZFMMmq900tttt",
"w00eNmVmMMMm<&==----5656w3wwww3wwwwww6www663----===2ZHHGVmmnreee",
"eeeymFMFMMMm=o++----6666w3w3wwwwwwwwwwww66w5----$$o=CHHHDDDVue0e",
"weeymMMMMMMb=o+%----6666www3wwwwww3wwwww66w3----%+o=ZHHHDMMme0ew",
"yyuimMMMbbbc=$+%----6666w3wwww6wwwwwwwww66w6;---+oo&BCCCDDMMirur",
"mmCmMMMb>@@@**--6566766709e96wwwww8wwwww66666533%+$%@@@,ZHGHmmVm",
"MMMMMMMb@   *---66666677eeeewwwwwwwww6w666w66ww3%+oO   @CHHHFMMM",
"MMMMMMMb@   *---56666666wee0ww6wwwwww8ww666w6www%%++   @CHHHCMMM",
"MMMMmmbc@   ***-565665668999wwwww6w66666665555:3%o+o   @bCCCMMFF",
"MMMm<==&     ...$**+;---;;;;wwwwwww7;--;&$%%OO.X++++%oo%@@@>CHHH",
"MMMb=ooX       .o$+o--------6wwwwww6----$o$o    ++++O$O$   @CHHH",
"MMMn=ooX        oooo------*;6www7ww6----$ooo    o$oo$$$$   @CHHH",
"MMMn<&=&#@@@@@@@*===:1::----6wwwwww6----&===#@@@==,===&>@@@>CHHH",
"MMMMmbbmCCCCCZCCnmnnbmmv;---3www6666---;cmmmCCZCZZCCZZZZCCCCHHHH",
"MMMMMMMFHHHHHHHHMMMMMMMm1--;ww6w6666---;mMMMHHHHHHHHHHHHHHHHHHHH",
"MMMMMMMDHHHHHHHHMMDMMMMm1---www66666---;mMCCHHHHHHHHHHHHHHHHHHHH",
"VmVmVVVVZZGGGGGGmMmMMMMm;---3www7776--*1mMCCZZSSSSZSSGHSSSSSGGGG",
"0900gggguuuuxxxguurqVMMb=$$*www6weww*%X,CHHGiyyyq08egkgge0ewkkkk",
"6677hjjfeeeefjjfeeeumMMm=$$%3wwwewe8%%$&CHHZyee8686wfjjfww3wfjjj",
"7677fjjfeeeefjjfeeeqmMCb>$$%wwwweee8%$$&CHHGyeee866wfjjfw6wwfjjj",
"667wfjjjeweefjjfee0eVDFB&$%%3wwwe8ew%$$,CHHGyeee666wfjjfw6wwfjjj",
"6777hjjfw67whjhfw670DHHC=$$%3e66www6%%o&AHHGstttw667fhhfw66wfhjj",
"667wfjjfw667fjhfw66eSHHC=$$%3w66ww86*oo,AHHGstpt766wfhhfw666fhjj",
"6677fjjfw67wfhhfw660SHHA=$$%3666w8w6%oo=ZHHGspptw66wfhhfw66wfjjj",
"7667fjjf7777fhjfw660SHHC>$$%ww6w6w86%oo&ZHHGstttw66whhhfw66wfjjj",
"766wfjjf777whhhf9660SHHC1X$%5ww68673O  @ZHHGspptwwwehhhfw66wfjjj",
"6677fjjf7777fhhfw86eSHHC&$O%wwww6673O  @CHHGsppteeeehhhhw66wfjjj",
"676wfjjfw777fhhfw660SHHZ&$$$5www6666O  @CHHGstpteeeefhhfw66wfjjj",
"6677fjjf777wfhhfw660SHHC*$$$wwww6763X  >CHHGsttteeeefhhfw66wfjjj",
"6677fjjfw677fhhh7770SHHZ=o+%6w666666-**1SHHSueeeww6whhhfeweehhhj",
"767wfjjfw677fhhf7770SHHZ=o%%56666665---1ZHHSueew666wfhhheeeehhjj",
"6677fjjf777wfjjfw760SHHA=oo%66666666---1ZHHSuwew666wfhhfeeerhjjj",
"777wfjjfw767fjjf776eSHHD1o+%56566666---1CHHGueee666wfhhfeewehjjj",
"6677fhjfw66wfjjfw760GHHD&Ooo%%%&*---*--:nDDVatttw66wffhheeeefjjj",
"667wfhjfw66wfhjf7660GHHA,o$$o%oO*------:mMMVatttw66wdhhheeeefjjj",
"7679fhhfw66wfjjfw76eSHHA=$$$oooo*------1nMMVatttw66whhhfreeefjjj",
"6667fhhhw66wfjhf7660ZHHD<======1::3:1114mMMVattt666whhhheewefjjj",
"667wfhhf766wfhhfw669mFDDZZCCCZZZZZZZZADZVMMVreee666whhhhww6wfhhh",
"677wfhhfw66wfhhfw660mMDDHHHHHHHHHHHHHHHHDMMmreeew66whhhdw66wffhh",
"6777fhhhw66wfhhhw660VDMDHHHHHHHHHHHHHHHHMMMVre0w666whhhhw66wfjhj",
"6677hhhfw66wfhhfw66wNVVVZSSGGGGGGGSSGGGGVVmNueeew6wwfhhfw66wfjjj",
"6667fhhfw66wfhhfwwwwgggfreerggkgreergkxgteeetttt666wfhhfw66wfhhh",
"7677fhhfw66wfhhfewwwfjhhewwwhhhhwwwehjjhwwwwttttw66wfhhfw66wfhjj",
"6777fhhfw767fhhhewwwfhhfwwwefhhhewwwhjjfwwwwttttw36whhhfw66wfjjj",
"777whhhf767wfhhfww9efjhhewwwfhhfewwwfjjfwwwwttttww3wdhhfw6wwfjjj"
};
