/* XPM */
static char *result[] = {
/* columns rows colors chars-per-pixel */
"64 64 224 2 ",
"   c #271D11",
".  c #281F11",
"X  c #371F13",
"o  c #2C2213",
"O  c #2A261F",
"+  c #352915",
"@  c #352A18",
"#  c #3C2E19",
"$  c #3A2614",
"%  c #3B3214",
"&  c #3E311A",
"*  c #34341A",
"=  c #2B2722",
"-  c #342E21",
";  c #3A3626",
":  c #3F3E3E",
">  c #7E1813",
",  c #412715",
"<  c #4B2D19",
"1  c #452C17",
"2  c #433515",
"3  c #42321A",
"4  c #453A19",
"5  c #4A3B18",
"6  c #592D10",
"7  c #642905",
"8  c #692606",
"9  c #762F07",
"0  c #7D2D09",
"q  c #772D08",
"w  c #6C340E",
"e  c #773007",
"r  c #783006",
"t  c #73320B",
"y  c #773A08",
"u  c #6E3515",
"i  c #7B3A14",
"p  c #493923",
"a  c #4B3C2F",
"s  c #631F1B",
"d  c #3F4120",
"f  c #7D4217",
"g  c #566909",
"h  c #5B6B0E",
"j  c #53620B",
"k  c #5E720D",
"l  c #5C6C13",
"z  c #586C18",
"x  c #567418",
"c  c #4D6911",
"v  c #64670D",
"b  c #656D0E",
"n  c #61750D",
"m  c #69790D",
"M  c #636C14",
"N  c #697616",
"B  c #677717",
"V  c #7D740B",
"C  c #444539",
"Z  c #5D5739",
"A  c #68542E",
"S  c #675434",
"D  c #755C39",
"F  c #725A35",
"G  c #664E2E",
"H  c #667822",
"J  c #7C623E",
"K  c #535A18",
"L  c #3F3F40",
"P  c #0C6B4F",
"I  c #1B6349",
"U  c #14684B",
"Y  c #0B6C51",
"T  c #0F6755",
"R  c #1C6F53",
"E  c #106A59",
"W  c #136956",
"Q  c #187257",
"!  c #266D51",
"~  c #2B4A6E",
"^  c #334B6C",
"/  c #32546D",
"(  c #2A4E7B",
")  c #2D4D74",
"_  c #324E72",
"`  c #2B507F",
"'  c #275476",
"]  c #395777",
"[  c #2F516E",
"{  c #187D64",
"}  c #404040",
"|  c #494949",
" . c #494C48",
".. c #494E4B",
"X. c #736642",
"o. c #44586E",
"O. c #7C7976",
"+. c #5B625F",
"@. c #8E140F",
"#. c #910F10",
"$. c #871411",
"%. c #8B1411",
"&. c #8B1D11",
"*. c #831B14",
"=. c #931111",
"-. c #931F1B",
";. c #941B13",
":. c #AD1815",
">. c #AD1716",
",. c #B61515",
"<. c #BC1616",
"1. c #B31914",
"2. c #84280B",
"3. c #88221A",
"4. c #95231A",
"5. c #813B12",
"6. c #B9241C",
"7. c #AE2419",
"8. c #861B22",
"9. c #912521",
"0. c #BB2725",
"q. c #BB352E",
"w. c #897E08",
"e. c #877908",
"r. c #887A15",
"t. c #8E6D3D",
"y. c #80643E",
"u. c #946E3D",
"i. c #93743D",
"p. c #826740",
"a. c #866B43",
"s. c #8E7647",
"d. c #9B7742",
"f. c #927946",
"g. c #9D7944",
"h. c #977947",
"j. c #927F54",
"k. c #A17B46",
"l. c #AB7D4A",
"z. c #B37E4A",
"x. c #8A7B7C",
"c. c #8A7B6E",
"v. c #77880F",
"b. c #6E8212",
"n. c #6C861D",
"m. c #748412",
"M. c #748D11",
"N. c #7B8713",
"B. c #7B9012",
"V. c #6C8622",
"C. c #7B9023",
"Z. c #1A835C",
"A. c #0F8C69",
"S. c #118D6B",
"D. c #158767",
"F. c #248D67",
"G. c #26916B",
"H. c #239173",
"J. c #25825E",
"K. c #8A8108",
"L. c #998C0B",
"P. c #8C8115",
"I. c #9E9310",
"U. c #A3990A",
"Y. c #A99B0A",
"T. c #A0970A",
"R. c #A89D1D",
"E. c #9F844D",
"W. c #958149",
"Q. c #93844F",
"!. c #A2844D",
"~. c #AC874F",
"^. c #AD894B",
"/. c #B08A4F",
"(. c #B7814D",
"). c #A38555",
"_. c #A28952",
"`. c #AB8957",
"'. c #B38C51",
"]. c #B58B59",
"[. c #B29459",
"{. c #B8945E",
"}. c #B39256",
"|. c #AE9157",
" X c #8A897C",
".X c #BB9760",
"XX c #BC9862",
"oX c #B99C6C",
"OX c #B29569",
"+X c #B6A36B",
"@X c #C7925F",
"#X c #C29C65",
"$X c #C79562",
"%X c #C6A167",
"&X c #C6A269",
"*X c #CCA66C",
"=X c #CBA56A",
"-X c #C5A370",
";X c #2C5280",
":X c #2E5B8A",
">X c #315B8E",
",X c #365985",
"<X c #315C92",
"1X c #3B5B92",
"2X c #3C6287",
"3X c #2D649A",
"4X c #30619E",
"5X c #396792",
"6X c #2D618A",
"7X c #3163A3",
"8X c #416289",
"9X c #7C8784",
"0X c #8B8B8C",
"qX c #8B8380",
"wX c #928D86",
"eX c #B29E9B",
"rX c #9BA99A",
"tX c #AEAD97",
"yX c #9EACA8",
"uX c #B5A7A5",
"iX c #A7B1AA",
"pX c #B4B4B5",
"aX c #B6B6B8",
"sX c #B1B1A2",
/* pixels */
"'.'.'.'.E.E.E.E.E.E.E.E.i.d.d.d.d.d.d.d.J J J y.d.d.d.d.d.d.d.d.d.d.d.d.E.E.E.E.E.E.E._.E.E.E.E.E.E.E.E.d.d.d.d.l.E.E._.'.'.'.'.",
"'.'.'./.!.E.E.E.E.E.E.E.g.g.g.d.d.d.d.d.J J J y.d.d.d.d.d.d.d.d.d.d.d.d.E.E.E.E.E.E.E.E.E.E.E.E.E.E.E.E.d.d.d.d.E.E.E.E./.'.'.'.",
"'.'.'.'._.E.E.)._.E._.E.g.g.g.i.d.g.g.i.J J J y.d.d.d.d.d.d.d.d.d.d.d.g.E._.!.!.E.E.E.!.E.E._.E.E.E._.E.d.d.i.k.E.).E.!.'.'.'.'.",
"'.'.'./.h.f.f.f.f.f.f.f.t.t.t.u.t.t.u.t.J F D D t.t.t.t.t.t.t.t.t.t.t.s.f.f.f.f.h.f.f.f.f.f.f.f.j.j.Q.j.s.s.h.s.s.f.f.h.^.'./.'.",
"'./.'.l.4 # # @ # @ # @ # @ # @ 3 3 3 3 3 # # # @ @ @ # # + @ # # @ @ # 2 3 2 3 3 3 3 3 @ @ @ = ] 8X,X8X] / ] ^ ; @ @ 4 !.'.'.'.",
"'.'.'.!.# . o o o o o o o o o o + + + + @ + @ @ o o o o o o o o o o o o + @ + + + + @ + .     O ;X>X>X>X( ( ( ~ O o o & l.'.'.'.",
"'.'.'.!.# o o o o o o o o o o o $ + @ + @ @ @ @ o o o o o o o o o o o o + + + + + + + + .     = ;X>X>X>X( ( ( ~ = o o @ !.'.'.'.",
"'.'.'.k.# o o o o o o + o o + o $ , , , , $ , # o o + o o o o + o o o + 2 2 2 2 2 % 2 % o .   = ,X>X<X>X` ( ( ~ O o o # l.'.'.'.",
"'.'.'.!.3 + + + & # 3 # 3 # 3 1 > $.$.$.$.$.$.> < # 3 # 3 # 3 # & & # 5 K.T.L.L.e.e.V V 4 # , a <X7X7X4X( ( ( ~ @ @ + 3 !.'.'.'.",
"/.'.'.l.4 + + + 3 3 3 3 3 3 3 < $.=.=.=.=.=.=.$.< 3 3 3 3 3 3 3 3 3 3 5 I.Y.Y.Y.w.w.e.V 5 3 3 ; <X7X7X4X;X( ( ~ - + + & l.'.'.'.",
"'.'.'.!.3 @ @ + 3 3 3 3 3 3 3 < $.=.=.=.=.=.=.$.< # 3 , 3 3 3 3 3 4 3 5 I.Y.Y.U.K.w.e.e.< 3 3 ; <X7X7X7X;X( ( ~ - @ + p !.'.'.'.",
"/./.'.l.< , # , 1 3 < 3 < 1 1 < =.=.;.=.=.=.=.$.< 3 3 3 3 # 3 3 4 5 5 5 I.R.R.R.P.r.r.r.p < < a 1X7X7X<X;X( ( ~ ; * * d k.'./.^.",
"k.g.k.u.&.%.%.$.9 t t t t t t q :.<.,.1.=.=.=.$.< 3 3 3 3 3 , 4 N m.M.C.tXsXsXsXwX X Xc.3.$.%.> 1X7X7X4X;X( ( ' { D.D.J.f.g.g.g.",
"d.d.g.u.-.=.=.%.q t r t r r 9 0 ,.<.<.,.=.=.=.$.< # 3 3 3 3 3 4 b.M.B.C.sXpXaXiX0X0X0Xx.-.#.#.8.1X7X7X4X;X( ( ' D.S.A.F.s.d.d.d.",
"d.d.g.u.;.=.#.@.q 9 r r t r 9 0 1.<.<.<.=.=.#.$.< 3 # 3 3 3 2 4 b.M.M.C.sXpXpXpX0X0X0Xx.-.=.=.8.1X7X7X4X;X( ( ' S.S.S.F.s.d.d.d.",
"l.g.l.d.;.=.=.@.0 9 r r r r r 2.,.<.<.<.=.=.#.$.a ; ; p # 3 % 4 m.M.M.C.tXsXsXtXwX X Xc.*.%.=.8.1X7X7X4X;X( ( ' D.S.S.D.W.k.k.!.",
"$X#X=X@X6.<.<.1.0 r r e e e e 0 1.<.<.<.=.=.=.8.,X<X1X>X= o o * b.M.M.B.R.R.R.R.P.r.r.r.&.#.=.8.1X7X7X4X` ( ( ' D.S.S.G.oX=X%X%X",
"*X*X*X$X0.<.<.1.0 r r e e e e 0 1.<.<.,.=.=.=.8.1X7X7X<X= o . % b.M.M.B.T.Y.Y.U.K.e.e.e.;.=.=.8.1X7X7X4X` ` ( ' S.S.S.G.+X*X*X=X",
"*X=X=X$X6.<.<.1.0 r r r e e e 0 <.<.<.1.=.=.=.8.1X7X7X<X= o o * b.M.M.B.U.Y.Y.U.K.w.w.e.&.=.=.8.1X7X7X4X` ) ` ' D.S.S.G.+X*X*X*X",
"=X=X=X@X6.<.<.1.0 9 t r e 9 9 0 1.<.<.<.=.@.%.8.1X7X7X<X; + + % b.M.v.M.U.Y.Y.U.K.w.w.e.4.%.=.8.1X7X7X7X` ` ` ' S.S.S.H.+X=X&X=X",
"}.'.'.(.6.<.<.<.0 9 r 9 8 7 7 q 1.<.<.1.2.q 0 u 1X7X7X5XV.b.b.m n n k m T.Y.Y.T.P.M.M.v.y 0 0 u 1X7X7X4X>X>X>X:XS.S.S.F.`.}.'.}.",
"'.'.'.z.6.<.<.<.2.9 r 9 7 7 7 8 1.<.<.1.0 y r u 5X7X7X5XV.M.M.M.n k k m T.Y.U.U.B.M.M.v.y r 9 u 1X7X7X7X<X>X>X6XS.S.S.F._.'.'.'.",
"'.'.'.(.6.<.<.1.0 9 9 t 7 7 7 8 1.<.<.1.2.t r u 1X7X7X5XV.M.M.M.n n k m T.Y.Y.U.B.M.M.v.y r r u 1X7X7X7X>X>X>X6XS.S.S.F._.'.'.'.",
"'.'.'.(.6.1.<.1.q t 9 t 7 7 7 8 1.,.,.1.0 e 0 u >X4X4X5XV.M.M.b.k g g h T.T.Y.U.B.M.M.m.y r r u <X7X<X7X<X>X>X6XD.S.A.F._./.'.'.",
"'./.'.(.4.=.=.=.8 7 8 7 < 2 1 < &.=.=.=.q q r u ^ ;X;X/ z n n k 2 % % 4 e.K.K.K.M.M.B.m.y r q u _ ;X` ;X:X>X:X:XE E Y R Q.E.E.E.",
"'.'./.l.;.@.=.=.8 7 7 7 < 3 3 < %.=.=.=.q r r u ^ ( ( [ z k k h % @ + % V K.w.K.M.M.M.M.y e 9 u ^ ( ( ( >X>X>X:XE T P ! W.E.E.E.",
"'./.'.(.4.=.#.%.8 7 7 6 < 4 3 < %.=.=.%.0 t 9 u ^ ` ( [ z k k l % + + 2 e.w.w.K.M.M.M.m.y r r u ^ ( ) ( :X>X>X:XE Y P R W.E.E.E.",
"/././.l.9.;.-.4.w w w w 5 p p a 9.4.4.4.5.5.5.f o.] ] o.H N N M 4 4 3 5 r.P.w.P.P.C.B.N.f f y f o.] ] ] 2X8X2X2X! R R ! Q.!.E.E.",
"g.k.k.k.z.z.z.l.].].].].`.|.`.].$X$X#X$X$XXX#XXXoXoXoXoX[.[.}.|.l.~.!.!.^.^.^.^.|.[.[.{.].].].].`.OXOX`.).).`.)._.)._.!.h.g.g.h.",
"g.i.i.g././.'.'..XXXXXXXXXXXXXXX*X*X*X*X*X*X*X*X*X*X*X*X#XXXXX.X/.'.'.'.^.'./.'..X.XXXXXXXXXXXXXXXXXXXOX'.'.].'./.'.'./.g.d.g.i.",
"g.d.d.d./.'.'.'..X.XXX.XXXXXXXXX*X*X*X*X*X*X*X*X*X*X*X*XXXXXXX.X'./.'.'.'.'.'.'..X.XXXXXXXXX.X.XXX.XXXXX'.'.'.'.'.'.'./.k.i.i.k.",
"k.g.k.k.^././.'.{.{.{.{..X.X.X.X&X&X&X&X&X%X#X&X&X&X&X&X.X{.{.{.'././././.'.'.'..X.X.X.X.X.X.X{..X{.{.{.'././.'.~.^./.^.k.g.g.k.",
"/./././.k.g.g.k.k.g.k.g.!._.!._._._.).).a.a.a.a.!._._.!.k.k.k.k.k.k.g.g.!.!.!.!._._.!._.!._._.!.g.g.!.g.d.d.d.d.p.p.a.a.~.(.'./.",
"'.'././.g.k.i.g.d.d.d.d.E.!.E.E.!.E.E.E.p.D J p.E.!.!.!.d.k.i.d.k.i.d.d.E.E.E.E.E.E.!.E.E.E.E.E.d.d.d.g.d.d.d.d.y.X.D a.~.'.'.'.",
"'.'././.g.g.i.k.g.g.d.g.E.E.E.E.!.!.E.h.p.X.J p.h.!.!.!.d.d.k.d.i.g.g.g.E._.E.E.!.E.E.E.!.!.E.!.g.d.g.i.d.d.d.d.y.y.D a.~.'.'.'.",
"'.'././.i.u.t.t.t.t.t.t.f.f.f.s.s.f.h.h.D D D D W.W.W.W.i.i.i.u.u.u.t.i.f.f.f.f.s.f.f.f.f.f.f.f.i.t.u.i.t.t.t.t.D D D D ~.'.'.'.",
"'.'.'.!.C 2 1 2 2 3 2 & @ @ @ @ + + @ @ % 3 # 4 M m M n l h h j 2 3 3 4 # @ # @ + @ @ @ 3 3 3 3 3 3 3 3 @ + @ @ @ @ @ 3 !.'.'.'.",
"'.'.'.l.3 @ $ + @ @ @ +         o       + + @ % h k k k g g g j % + @ o o o o o         + + @ + + @ % o .     . . o o # l./.'./.",
"'./.'.~.3 @ + + + @ @ +                 @ + + % l k k k g g g j % @ @ @ o o o o         + + @ @ @ + + + . . . . . o . # !.'.'.'.",
"'././.l.6 , 1 , , , , $ o o   o O = = = - - - * l n n k g g g j 1 $ 1 $ + o o o o . o o % % % % % % % + . . . . o o . % ~.'.'.'.",
"'./.'.(.7.:.:.:.=.$.$.> $ @ + - ;X<X<X>X) ~ ~ ^ n.M.M.v.k k k v *.@.$.> < # # # 3 # # 3 j h h h j j j j 2 3 # # # $ @ 3 !.'.'.'.",
"'.'./.(.6.<.,.,.=.#.=.$., @ O ; <X7X7X7X;X( ( / n.M.M.M.k k k v &.@.@.@.< 3 3 3 3 3 3 4 l k k k g g g j 2 3 3 % @ @ + 3 !.'.'.'.",
"'.'.'.(.6.,.<.,.=.=.=.%., + + - <X7X7X7X;X( ( / n.M.M.M.k k k b &.=.#.$.4 3 3 3 3 3 3 4 h k k k g g g j 2 3 & & + @ + 4 l./.'.'.",
"/././.(.q.0.0.0.9.-.9.*.# - @ ; 3X7X7X<X` ( ( / n.M.M.m.n k k b &.#.=.%.s < < 3 3 # # 2 k n n k g g g j d ; d ; * * @ ; g./././.",
"k.k.k.j.eXuXuXeXqXx.x.O.I U U T 3X7X7X4X` ( ( / n.M.M.M.n k n v &.#.=.=.:.:.:.>.$ o o * m M.M.b.k k k x J.D.Z.Z.U U U I X.p.p.p.",
"d.d.d.l.sXaXpXpX0X0X0X9XW P P E 3X7X7X4X( ( ( / n.M.M.M.n n h v &.#.=.=.<.<.<.:., . o + b.M.M.M.k k k x Z.S.S.A.Y P P R X.J J J ",
"d.d.d.h.uXaXpXpX0X0X0X9XR T P E 3X7X7X4X;X( ( / n.M.M.v.n k h v &.=.=.=.1.,.<.:.X X . + b.M.M.M.n k k x D.S.S.A.Y Y Y U X.J J J ",
"k.k.k.).eXuXeXeXqXx.x.O.R Y Y E 3X7X7X4X;X( ;X[ V.n.m.n.l l l l *.@.@.=.<.<.<.:., X X 1 b.M.M.M.n k k x G.H.H.H.Q W Q ! X.a.a.a.",
"#X&X&X$Xq.0.0.0.9.-.-.8.U Y Y E 3X7X7X4X` ` ( ) .. .Z  .} C C C t 0 9 2.1.<.<.,.%.$.%.2.m.M.M.M.n k k B rXiXiXyX9X9X9X9X+X%X#X%X",
"*X*X*X$X6.<.<.<.=.=.%.*.I T P E 3X7X7X7X` ` ` ) ..| | | L L L C w r r 0 1.<.<.,.=.=.#.;.m.M.M.n.n k k H sXpXaXpX0X0X0XwX&X*X*X=X",
"*X*X*X$X0.<.<.,.=.=.=.3.I Y P E 3X7X7X4X` ) ( ) | | | | L L L a t 9 r 0 1.<.<.<.=.=.=.&.N.M.M.M.n k k H iXpXpXpX0X0X0X0X*X=X*X*X",
"=X=X*X$X6.<.<.<.=.=.=.> I Y P E 3X7X7X4X` ` ` ) | | | | L L L a w t t 0 :.<.<.<.=.=.=.&.N.M.M.M.n k k H rXiXiXyX9X9X9XqXoX=X=X=X",
"'.].}.(.6.<.<.1.2.r 0 w I P P E 3X7X7X4X>X:X:X,X..| | | a L : : @ $ $ 1 $.=.=.=.<.<.,.7.V M.M.M.n k k x G.H.G.G.Q R R ! `.}.'.}.",
"'.'./.z.6.<.<.1.0 r r w I P P E 3X7X7X4X<X>X>X,X..|  . .} L L : # + + , $.=.=.=.<.<.<.7.N.M.M.M.n k k x D.S.A.A.E P Y R _./.'.'.",
"'.'.'.(.6.<.<.1.2.y r w I Y Y E 3X7X7X7X>X>X>X:X^  .|  .} } L : # + + , $.=.=.=.,.<.<.6.N.M.M.M.k k k x F.A.S.A.Y Y P R _.'.'.'.",
"/.'./.z.6.<.<.,.0 r r w I U U W 3X4X4X4X>X>X>X,X .C .. .C C C C & % # 1 &.@.@.=.1.,.,.1.V M.M.m.k k k x Z.A.A.A.E T T ! _.'.'.'.",
"E.!.).k.;.=.=.@.0 r r t S Z S Z ) ;X;X;X>X>X>X,Xz l l l l l l l A G G G 9 0 0 0 =.=.=.;.b n n k g g g c U Y P E ' ' ) ] )./.'.'.",
"E.E.E.g.-.=.=.=.9 r r t A S S Z _ ( ( ( >X>X<X2Xx k k n k k k l S S S A t r 9 0 %.=.=.&.v n n k g g g c U P P E ' ' ( ] )./.'.'.",
"E.E.!.g.;.=.=.@.0 q r r G S S S ` ;X( ;X>X>X>X2Xz l g k k k k h A S S A e 9 9 q =.@.%.&.v b k g g g g c U Y P T ' ( ( ] `.'./.'.",
"_.!.!.l.9.4.-.4.i i 5.f F D D X.o.o.] ,X8X8X8Xo.H B N N N N N N F F F F f 5.5.i 4.4.-.4.N N N N M M n k ! R R ! / ] ] o.).'.'.'.",
"'./././.].].].].}.].].].XX#X#XoXoXoXoX-XoXoXoXoX.X[.[.|.^.^.^.^.~.^.~.`.].'.].].].].].].[.[.|.[.[.[.|.|.`._._._.).).).).'.'./.'.",
"'.'.'.'..XXXXXXXXXXXXXXX*X*X*X*X*X*X*X*X*X*X*X*XXXXXXXXX'.'.'.'.'././.'.{.XXXXXXXXXX.XXXXXXXXXXXXXXXXXXX'.'././.'.'.'.'.'.'.'.'.",
"'.'.'.'..XXXXXXXXXXXXXXX*X*X*X*X*X*X*X*X*X*X*X*XXXXXXX.X'.'.'.'.'.'.'.'.XXXXXXXX.XXXXXXXXXXXXX.XXXXXXX.X'.'.'.'.'.'.'.'.'.'.'.'.",
"'.'.'.}..XXXXXXXXXXXXX#X*X*X*X*X*X*X*X*X*X*X*X*XXXXXXX.X'.'.'.'.'.'.'.'.XXXXXXXXXXXX.XXXXXXXXXXX.XXXXX.X'.'.'.'.'.'.'.'.'./.'.'."
};
