/* XPM */
static char *result[] = {
/* columns rows colors chars-per-pixel */
"64 64 74 1 ",
"  c #2D0003",
". c #310303",
"X c #3C0C04",
"o c #400F06",
"O c #431200",
"+ c #4A1606",
"@ c #4D1A02",
"# c #41130B",
"$ c #4D1C0A",
"% c #521E02",
"& c #521E09",
"* c #562103",
"= c #5F2804",
"- c #552309",
"; c #632C05",
": c #66300B",
"> c #74360D",
", c #77380C",
"< c #7E3D0E",
"1 c #663210",
"2 c #813F0E",
"3 c #83410E",
"4 c #8A470F",
"5 c #8B4B0B",
"6 c #924F0A",
"7 c #94510A",
"8 c #9C570B",
"9 c #9F5A0B",
"0 c #8A4710",
"q c #8F4B10",
"w c #965710",
"e c #975810",
"r c #9C5911",
"t c #A15B0B",
"y c #A55E10",
"u c #9F6016",
"i c #A7600D",
"p c #A8600D",
"a c #A46312",
"s c #A86312",
"d c #AB6B19",
"f c #B16711",
"g c #B46A12",
"h c #B96D13",
"j c #B86F18",
"k c #BD7114",
"l c #B87019",
"z c #C37514",
"x c #C77915",
"c c #C87915",
"v c #C57A1A",
"b c #CB7D1A",
"n c #BF843B",
"m c #CE801A",
"M c #D1821A",
"N c #D8871A",
"B c #DD8B1B",
"V c #E08D1C",
"C c #E3901D",
"Z c #DD8D20",
"A c #C1863B",
"S c #C98D3C",
"D c #CF913E",
"F c #D2943E",
"G c #DB9B3F",
"H c #E39322",
"J c #CE9343",
"K c #D19543",
"L c #DC9E43",
"P c #E09F40",
"I c #DFA145",
"U c #E3A346",
"Y c #E4A74C",
"T c #E5A84C",
/* pixels */
"zzxzzxzzxzzzttttzzzzzzzzzzzzitttaaaskzzxzzzzzzzzsaaat9ttzzzztttt",
"zzzzzzzzzzzktttykzzzczxzzczzttt9aaasvzzzxzzxczzksaaa999ikvzktttt",
"zzzxxzzzxzzzttttzzzzzzzzzzzzttttaaaakxxzzzzzzzczaaaa999izzzzt9t9",
"cccccccxccczpttyzxzzccccccxzpittaaaazcxxcccxzzzzaaaaiiipzxcztt9t",
"VVBVVBBCVVBNpt9tzzzxBVVVVBVBzzzhittpNCBVBVVBczzki9tpNBBBVBVNpttt",
"CCCCCCCCCCCBptttzzzcBCCCCCVVczzkt99pBCCCCCCVczzzi99pBCCCCCCBpt9t",
"CCCCCCCCCCCBptttzzxcVCCCCCCVxzzzi99iBCCCCCCCczzzi99iBCCCCCCNp9t9",
"BVBVHHHHHHHBptttffggbMbMBVVBbvbzt99iNCBBMmmmccczt99pNBBVHHHBp99t",
"xxxmIUUUUUUGa9t7+XXXX#O$hxvmIIIKst9tzxch&X#%bVVNtttpzccbPUUGa9t9",
"zxzvIYYYYYYLatt6X      XfzzvIYIIs9tizzzgX  #mCCBptttzzzvIYYLst9t",
"xzxvIYYYYYULs9t7X      XgxxmIIYIs9ttzxxfX  #MCCBpttyzzzbIYYLstt9",
"kzkvGUUUYYYLatt7X   .. #afdlITIIs9ttshfyX  XkMmcpttthzzvIYYLsttt",
"tttpBHHHIYILdaawX   XOOOXXX-KITIs9t7+XXX.  .X#O&gzzhpttsLYYUvzzk",
"tttpBCCHYYYIdaawX   OOOO.  #KTTIs9t6X          XgxzztttsLYYLbzzz",
"tttpNCCHUYYIdaaeX   OO+X.  XJIIIa9t6X          Xgxzztt9sLYYUvzzz",
"9ttpBCCHUUULuweqX. .OOOO. .#FTIGstt6X   ...... otgfft99yLUUPbxzz",
"t99pNCCCHHHM$XXXXOOOOOOOXOX*MHHZa997X  .XOOXOOOOoXX+7t9iBHHZczzx",
"9t9iBCCCCCCmX  .OO+OOOOOO+@*MCCBi997X  .OOOOOOOX.  X7t9iNCCVcxzz",
"t99pNCCCCCCm#  .OOOO+O+OOOO*MCCBi997X   OO@OOO@X.  X7t9pBCCBxxzz",
"9t9pBCCCCCCm#  .XOOOOOOOOOO*MCCBi99w.  .OOOOOOOO.  X7t9pBCCVcccc",
"t99pBCCCCCCm#  .OOOOOO+OOOO*MCCBi9t7X   OOOOXO@OOOO@7t9iBCCCVBVB",
"9t9pNCCCCCCmo  .XOO+OOOOO+O*MCCBi9t7X   OO@O@XXOOOO@7ttpBCCCCCCC",
"t99pBCCCCCCMo  .OOOOOOOOOOO*MCCBi9t7X  .OOOOX@X@OOO%7ttpBVCCCCCC",
"9ttpNCCCCVCbO  .X+OOOO+OOOO*mVVNi997X  .XOOO@X@XOOO@577tBCCCCCCC",
"t99yBCCCCCCmo   OOOOO@X@X@X*hmzzi9t7X   OOOO@XX@O+O+@@@;mCCCCCCC",
"9ttpBVVCCCCm#  .X@OOX@@X@XX*hzzki997X   XOOO@O@OOOOOOOO*MCCCCCCC",
"tt9pBCCCCCCmX   OXOOOOOOOOX-gzzzt9t7X   X@+OX@XXOOOOOOO*MCCCCCCV",
"9ttyBVCCCCCM-###O@OOOOOO**-:gmzki9t7$X$XOOOOOOO@+OOOOOO*MHHHHCCC",
"t9tpBCCCCCCHFJKA-O@X@XO*kNMmxkxktttiSJJn-OOOOOOOOOOOOOO-DUUUHCCC",
"9ttpBCCCCCCCUYTK-OX@X@O*MCCVxmkkit9aIYTJ-OOOO+OOOOO+OOO-KYYUHVCC",
"t99tBCCCCCCHUYYK-X@XOOO*MCCVxxkktt9aITTK-OOOOOOOOOOOOOO-KYYUHCCC",
"9t9yBVVCVCCCUUUF1----*-:MCVBmkmmiiisGITK1-------****---:FUUUHCCV",
"t9tpBVCCCCCCHHHHKKKDMMMMxxkmIIIIkkkxVHHHFKKKFKKFMMMMFKJFHHHHCCCC",
"9ttpBCCCCCCCCCCHUTYUHCCVxxzmITYImxzxVCCHUTTTYTTTHHCHTTYUHCCCCZCC",
"t9tyBVCCCVCVCCCHUTYUHCHBxvxxIYIImxvxVCCHITYIYITIHCCHITTIHCCCCCCC",
"9ttpBCCCCCHBMmmMGIILMmmmzzkmPUIIlsfhNVVZPIIIKKJKBBBZFJJJCCCCCCCC",
"t99yBVCCCCCM-X#+esar$XO-gxzxZHHM&XX$jxxxmmml-XX$eii8$X$-mCCCCCCC",
"9ttyVCCVCCCbX  X79t6.  XgzxxBCCMX  XfxzvkkkfX  X7tt7X  XmCCCVCCC",
"ttttBVVHCCCM#  X6tt7X  XgzzcCCHNO  XgxxzkmmdX  X7tt7X  XmCCCCCCZ",
"tttpBCVVMMMkX  X5665X  XihgkmMMkX  XihggggguX  X5775X  XmCCCCCCC",
"tttpBCCm-##X.  .XXXX   .****XOXX.  .****XXXX   .@*%@. .#mCCCCCCC",
"tttpNCCmX               OXXX.      .XOXX.  .   .XOXO.  XmCCCCCCC",
"8t9pVCCmO              .X@OO       .OO@X.       X@OX.  OmCCCCCCC",
"tt9tBCCm#   ...  .. ....OOOO........XOOX...... XXOOO...XkMMNZCCC",
"tttpBVCm#   XOXOOXOOOOOXOOOOOXOXOXXOO+O@XOXXOOXO@O@XOXOO***:MCCC",
"tttpBVCmX  .OO+OOOO+OOOOOOOOO+OOO+O+OOOO@O@XOOOOXO@OOOO+OOO*MCCC",
"9tttBCCmO  .X@+O+OOOOOOOOOOOO+OOOXOXOOOOX@X@@O@OOXXOOOOOOOX*MCCC",
"t9tpNVVM-XOOXXXOOOOO---*@OOOOOOO%***+OOO@X@XXOX@****+OO+OOO*mCBB",
"9t8tzzxcbMMkO ..OOO-nKKA-OOOO+O%pggp%OOOOOOOOOO%aghp%OOOOOO%hccc",
"t9ttzzzzVCCMo  .OOO-KYTK-O+OOOO*hxxh*OOOOOOOOOO%gxxg%OOOOOO%gzxz",
"ttttzzxcVCCbO  .OOO-KTTK-OOOOOX%gzzg%OOOOOOOOOO%gxxg%OOOOOO%gzzz",
"ttttzxzcVCCMo  .@**:FUUF-OO+***=gzzf;*******+OO%fkkf;******;gzzz",
"ttttzzzzVCCmo  okMMNCCCM*OO*kMMmpttpbmNmNMMz%OO@<50qvmMMMmNcptty",
"ttttzzzxBCCm#  #MCCCCCCM*OO*MCCBp9tpBCCCCCCM*OO@><,0BCCCCCCByttt",
"ttttzzzxVCCmX  omCCCCCCM*OX*MCCBp9tpBCCCCCCM%OO@><<5NCCVCCCBtttt",
"888thzzzBVCb+X.+bCVBVCVM=@%=mBVNtttpNVBVBBBb=@%%,<<5mBBBVVVBy888",
"2223ttyyzcck<>><hzcccczz8777yyytttttzcczpppp87772<<3tpppzccz5222",
"<222ttttzzzk5<<3zzzzzzzzttttttt9ttttzzzzttttttt82<23ttttzzzh3<<2",
"<<<29tttkzxk3<<3hxzzzzzztttttt9tt99tzzzzttttttt82<<28tttzzzh3<<<",
"2<<289ttkzkh4<<4hzzzzczztttttttt9989hzzhtt8t88872<<28ttthzzh3<<2",
"<<<289t9ttt93<<3ttttzzzzttttt9t83223tttt9t983322<<<28t9ttttt3<<2",
"<<22899tt9t92<<28tttzzzztttt9t983<2299ttt9983<<<<2<289t8ttt83<<<",
"<<<2899ttt983<<38ttthzzzttttt9993<<28ttt9tt83<<<<<<38tt9ttt82<<<",
"<<<299tttt992<<2ttttzzzztttt9t992<<28tttttt82<<<<2<28t9tttt83<<<"
};
