/* XPM */
static char *result[] = {
/* columns rows colors chars-per-pixel */
"64 64 106 2 ",
"   c #573C28",
".  c #593D29",
"X  c #5C412B",
"o  c #5B492C",
"O  c #5C542E",
"+  c #5C4231",
"@  c #5D4D32",
"#  c #62432E",
"$  c #624D2F",
"%  c #654731",
"&  c #624C31",
"*  c #6B4B33",
"=  c #625332",
"-  c #625833",
";  c #725137",
":  c #755238",
">  c #79553A",
",  c #7D583C",
"<  c #755743",
"1  c #765842",
"2  c #7B5B43",
"3  c #69635E",
"4  c #6B6764",
"5  c #6E6966",
"6  c #6C6D6D",
"7  c #726963",
"8  c #716C69",
"9  c #805B3E",
"0  c #855F42",
"q  c #8E6646",
"w  c #8F6748",
"e  c #8E694C",
"r  c #906747",
"t  c #916847",
"y  c #956B49",
"u  c #9A6F4C",
"i  c #9D714D",
"p  c #946F51",
"a  c #987152",
"s  c #A57751",
"d  c #AD7C55",
"f  c #B17F58",
"g  c #847D77",
"h  c #877F78",
"j  c #887F79",
"k  c #58842C",
"l  c #578D2D",
"z  c #588E2D",
"x  c #509026",
"c  c #539329",
"v  c #59902F",
"b  c #57982D",
"n  c #59992F",
"m  c #5E8A33",
"M  c #5E9534",
"N  c #5F9F35",
"B  c #609636",
"V  c #619837",
"C  c #69963E",
"Z  c #659B3A",
"A  c #699E3E",
"S  c #5FA035",
"D  c #61A137",
"F  c #65A53B",
"G  c #69A73E",
"H  c #67A83D",
"J  c #69A93F",
"K  c #6B9740",
"L  c #6D9941",
"P  c #6DA342",
"I  c #6CAC42",
"U  c #71A746",
"Y  c #70AE45",
"T  c #7DA54D",
"R  c #7EAF4F",
"E  c #6FB045",
"W  c #71B147",
"Q  c #75B44B",
"!  c #79B64E",
"~  c #79B94F",
"^  c #7DB050",
"/  c #7DBD53",
"(  c #7FC055",
")  c #B38159",
"_  c #BA865C",
"`  c #82A153",
"'  c #87AE57",
"]  c #8CAB5C",
"[  c #82B252",
"{  c #83BD57",
"}  c #8EB75E",
"|  c #87B858",
" . c #8CBC5C",
".. c #85827F",
"X. c #90B760",
"o. c #92BE62",
"O. c #81C057",
"+. c #83C058",
"@. c #8FC060",
"#. c #93C263",
"$. c #96C867",
"%. c #98C768",
"&. c #9BCB6B",
"*. c #898481",
"=. c #878788",
"-. c #878888",
/* pixels */
"Q Q Q Q Q Q ~ ~ Q Q W W H F H F F H F H I I I I F S N D J I I E / / / / ! Q Q Q J I J J J J H G J J J J D D D D c x x c J I I E ",
"Q Q Q Q ~ Q Q Q W Q Q Q H H F H H F H H I W W I D N N D I I I I / / / / Q Q Q Q I J I J G G H F J J J J F D D V c x x x J E I I ",
"Q Q Q Q Q Q ! Q Q Q W W F H H F F H F H W I W I D S N D I I I I / / / / Q Q ~ Q J J J J G H G G J J J J D D D D c x x c J I E I ",
"Q Q Q W Q Q Q ! Q Q Q Q P G G G P G G G P P P P D D V D I I I I ~ / ~ / / ~ ~ ~ Y Y Y Y J H H H J J J J F D D D c x c b I W I I ",
"Q Q Q Q I I I W | | | | ! R R R R [ [ T O o o O Z H H H F F F D D F D G  .#.o.@. . . .o.Q W Q Y F D D F J I I J F F F F J I J I ",
"Q Q Q Q E I I I |  .| | ' [ [ [ [ [ [ T o . . X Z J H H F V D F N N N F +.%.#.#.o.@.@.+.Q W Q W D D D D J I I I G H F G I I I I ",
"Q Q Q Q I I I W | | | | [ [ [ [ [ [ ' T $ .   o Z J G H F F S D V S N F  .#.#.#.@.o.o. .Q Q W W F D D F I I I I H H G G I I J I ",
"! ! ! Q P F L P |  . .| R R R T [ [ ^ T o .   o F I J G M B V V D D D F  .#.#.#.@.@.o. .! ! ! Q V B B V J J I J G F G F A A A F ",
" . . .' = o o - X.&.&.%.U G F G I I I A o . . o P Y Y G O X o O P W W Q / +.+.+.@.#.#.o.#.#.#.} O o o O v n n n D D D V O o o o ",
" . . .' o     & o.&.&.o.U D F F H I H Z o . . o P Y Y U o .   o U Q Q Q / ( / +.#.#.#.#.$.%.%.X.$     o z b b b N N D B o   .   ",
" . .o.' o . . & o.&.&.&.G F D G H J P A o . . o U W W G o .   o U Q Q Q / / ( O.@.#.@.#.$.%.%.} o   . X z b c b S D D M o . . . ",
"' ' ' ` = + + & ] o.%.X.A V V V J J I F o . . o C G U C o .   o U W W Q ! ^ ^ ^  .@. .o.X.X.X.] $ . . $ k z l l M M M m $ . X . ",
"@ $ o & 3 4 4 4 = $ & $ # o o O P W E P o   . . o # o o . . . o V D S V O o o = P Q W P - @ & & : ; > ; o o o o X o o o ; : : : ",
". . . + 4 6 6 4 . .   . . .   o P Q W P o . . . . . . .   . . o M S S M o .   o P I E L o . . X > > > ; . .     . .   . : > > > ",
". .   + 4 6 6 4 + . . . . .   o U W Y U o . . . . . . . . . . X M S S M o     o F E I F o . . . : > > ; X . . . . . . # ; > > > ",
"# + X % 3 6 6 4 % X # # # # % $ L P P A $ # X # # X . X X # . o m M M m o   . o C L P C @ + + + > > > : # # X # . . . . ; > > > ",
"w w t w , 1 , 1 q t w t d d f s $ o o $ q q q q > : ; : : : : ; o o o o . . . . o o o @ 3 4 4 4 > > > > w q t q X . . X : > > > ",
"y y y y , : > , y y y i ) _ _ f # . . # q y y t , > > > > > > ; .     . . . . . . . . + 4 6 6 5 > > > , y y y t X   . X : > > > ",
"y y y t , : > , y y y i _ _ _ d # .   # q i y t , > > > > > > > X . . . . . . . . . . + 4 6 6 5 > > > > t y y w # . . X : > > > ",
"y t y t > : : > t y y i ) ) ) d * X . # t y y t > : : : ; : ; ; X . . . X . X X X . . + 3 4 4 4 1 > > , t y t w # X . # , 9 , 9 ",
", > , > # X . # t y y y i i i y > : : > t y y t # . # X X X X . . . . . ; > ; ; > : : ; # + + % : > > > , , , > : : : , d f f f ",
"> > > : X . . # t y y y y y y t , > > , t y y t # . . . . . . . . . . X ; > > > > > > : X     . : > > > : > > > > > > 9 f _ _ _ ",
"> > > : . .   # t y y y y y y t > > > , y y i q # . . . . . .       . X : > > > > > > : . . . . : > > : > > > > > > > 9 ) _ _ _ ",
"9 , 9 , # X X # w t y y t y t t 2 2 2 2 t t t q # . X X # # * # # % % % : > > > 9 9 9 > * % # % : > > > , , , > > > > 9 f ) ) ) ",
") f ) d , : ; : , , , , , , > 2 g ....g 2 , , , : : : > s d d d d f f s 9 > > 9 d f ) f d f f s , > > , t y y t > > > , t u u u ",
"_ _ _ f 9 , > > > > > : > > > 2 ..-.-...2 > > > > > > 9 ) _ _ _ _ _ _ f 9 > > 9 ) _ _ _ _ _ _ f 9 > > , t y y t > > > , t y y y ",
"_ _ _ ) 9 : > > > > > > > > > 2 ..-.-...2 > > > > > > 9 ) _ _ _ _ _ _ f 9 > > 9 ) _ _ _ _ _ _ ) 9 : > , y y y t , > > , y u y u ",
"f f f d , > > , , 9 9 , 9 9 9 2 ........2 > , , > > > , d ) ) ) f f _ f 9 ; ; 9 f ) ) ) ) ) ) f 9 > > 9 t t t t , , , , t y y y ",
", 9 9 , , > > , d ) ) ) ) d ) ) i u a a t t y t , > > > , 9 9 9 y i u t # . . % y u u u u u u y , > > > , , > , t y y t y y u y ",
"> > : > > > > 9 ) _ _ _ _ _ _ ) i y y y y y y y > > > > > > : , t y y t X . . # t y y y y y y t , > > > : > > , t y y y y y y y ",
"> > > > > > : 9 ) _ _ _ _ _ _ ) i y y y y y y t , > > : > > > , t u y t X     # t y y y y y y y , > > > > > > , y y y y y y u y ",
", , > , > > > , d ) ) d ) ) ) ) y t y t i y y y , > > > : : : > t t t q % # # % t u y y y y t t > > > : > > > , t t t t y y t y ",
"t y y q > > > > 9 9 9 9 u u i y 9 > > 9 t u u t 9 > > : # X . # 9 9 9 9 9 t t t y y y t 9 > 9 > > > > > > > > : # # X % > 9 > > ",
"y y y y 9 > > > : > > > t y y t 9 > > 9 t t u t > > > : . . . X ; ; : > t u y y y u u y 9 > > > > : > > > > > ; .   . X : > > > ",
"y y y y > > > > > > > 9 y y y t > > > > t u t t 9 > > : X . . X : : : 9 y y y y y y y t > > : > > : > > > > > : X . . . ; > > > ",
"y y y t 9 > > > : : ; > r y t r 9 : : 9 r t r q > ; : : X X X X : 9 9 > t y t t t y t r , > > > 9 9 9 9 9 9 9 9 # X X # > 9 > , ",
"> > 9 9 r y y q # X X # > 9 > 9 : > > : % # # # . X X X ; : : : > > > > 9 9 > 9 9 > > 9 > > > 9 d f f f f f f d > : ; > r t t y ",
"> > > > y y y q #   . . : > > > > > > : . .   . . . . X ; > > > > > > > > > > ; : > > > > > : 9 f _ _ _ _ _ _ f 9 > > 9 t y y u ",
"> > > > y y y r # . . X ; > > 9 > > > : . . . .     . . ; > > > > > > > > > > > > > : > > > > 9 f _ _ _ _ _ _ f 9 > : > t u y y ",
"> > : 9 y y y r # X . # > 9 9 9 9 9 9 > % . X . % % % % > , , , ; ; ; ; 9 9 9 9 9 9 9 9 > ; ; 9 d ) ) _ f _ f f 0 2 2 0 t y t t ",
"> : > 9 y y y t > ; ; 9 s f ) f f f f d 9 ; ; 9 d d d d y y t r % . X % s f f f f f f d % . # # y u u u u u a a j ..*.8 e > 2 > ",
"> > : , y y y y 9 > > 9 f _ _ _ _ _ _ f 9 > > 9 ) _ _ _ u y y r X .   % f _ _ _ _ _ _ d #   . # t y y u y y y p *.=.=...< > > > ",
"> > : > y y y y > > > 9 f _ _ _ _ _ _ f 9 9 ; 9 f _ _ ) u y y t # . . % d _ _ _ _ _ _ d % .   # w y y y y u y p *.=.=...2 > > > ",
"9 > 9 9 q t y r > > > 9 f ) ) ) f f _ f 9 9 9 9 d f f d u y y y % X X % f _ f f f f _ d % X . # q t t r y y y y j j *.g 2 : : : ",
"y y y q 9 > 9 > > > > 9 y i i i u i i i f f f f 9 9 9 9 t u u e 7 4 4 4 p u u u i u u y > : : ; X # # % t y y y 2 2 2 > X X X X ",
"y y y y > > > > > > > > t y y y y y y i f _ _ f 9 > > , t y y p 5 6 6 8 p y y y u y y t > > > : . . . X t y y y > > > : . . . . ",
"y y y y 9 > : > > > > > y y y y y y y i ) _ _ f 9 > > > t u y y 8 6 6 5 e y y y y y y y 9 > > : X . . X w y y r , > > : . . . . ",
"t y y t : : : : > > 9 9 t y y y y y y i f ) ) f 0 9 2 0 r t t e 7 5 5 7 e y y y y y y r , > > ; # X . # q y y r 9 0 0 > % % # % ",
"> , , : # . # # q q t t 9 , > 9 y y u y i i u i d ) ) d 0 > , , , < > , , , , , > , , > > > > > > : : : > , , 9 d f ) f f d f d ",
"> > > : X .   # q y y y 9 : : 9 t y y y y y y u _ _ _ d , > > > > > > > > > > > > > > > > > > > > > > > > > > , ) _ _ _ _ _ _ _ ",
"> > > : X     # q y y t , > > , t y u p y u u i ) _ _ ) 9 > > : : > : > > > > > > > > > > > > > > > > > > > > 9 f _ _ _ _ _ _ _ ",
"> > > : # # # % q y y t > > > > e y w e t t w y ) ) _ d 9 , , , > > > > : : : > , 9 9 , > ; : > > > > > 9 9 9 0 f ) ) ) ) ) ) ) ",
": > > 9 q q q q , , , 9 > > > > 2 2 2 2 2 > > 0 y i i u t t y q , > : : # . X # s f f s % X X # ; > > 9 d f ) f i i u i i i u u ",
"> > : , y y y t , , : : > > > : < < < < > > > > t y u y y u y y , > > : X . . # f _ _ f # . . . ; > > 9 f _ _ ) i y y u y y y y ",
"> > : > t y y y , : > > , : > > < < < 1 > > > > t y y y y y y y , > > : . .   # f _ _ f #   . . : > > 9 ) _ _ ) y y y y y y y y ",
", , 9 9 q y y q > : ; : 9 9 9 9 < < < < : : : > w y t y q w q q 9 , 2 , * # # * d ) f s % # # # : > > > d f ) d i y y u y u y y ",
"y t y q 9 > 9 > # X X % s ) ) d , : > : X X X # > , , > # # X % d ) ) d d d ) d 0 9 9 9 q t t w , > > > 9 9 9 0 y y y y y y y y ",
"y y y y 9 > : : X     % d _ _ f 0 > > : X . . X : > > : . . . # d _ _ _ _ _ _ d 9 : > > y y y t > > > > > : > 9 y y y y y u y u ",
"y y y y > > > ; X .   % d _ _ ) , > > : X . . X : : > ; X .   % d _ _ _ _ _ _ ) 9 > > > t y y t > > , > > > > > y y y y y y y y ",
"y y y y , > > : % # # * d _ ) d 9 , , > % . . + 2 2 2 < % X X % d _ ) ) ) ) _ d 9 > > , t y y t 9 > , > > > > , t t y y t t t t ",
"y y y y 9 : > 9 s f f d i u u u t t y w > ; ; , g ....g , ; ; , y i i i i i i y > , > > > > > > r y y t y y t t , > , > # # # X ",
"y u y y > > > 9 f _ _ ) u y y y y y u t , > > 2 ..=.=...2 > > , w y y y y y y q > > > > > > , , y y y y y u y y > > > : X . . . ",
"u y y y > > > 9 ) _ _ ) u y u y t u u t , > > , ..=.=...2 , > , t y y u i y y y , > > > > > > , y y y y y y y y , > > : X . . . ",
"y y y t 9 > > 9 f _ _ ) u u y y u y y w , > > 2 ..=.=...2 : > , y y y y y y y t , > > > > , , > y u y y y y y y , > > : X . . . "
};
